<?xml version="1.0" encoding="UTF-8" standalone="no"?>
<svg
   xmlns:dc="http://purl.org/dc/elements/1.1/"
   xmlns:cc="http://creativecommons.org/ns#"
   xmlns:rdf="http://www.w3.org/1999/02/22-rdf-syntax-ns#"
   xmlns:svg="http://www.w3.org/2000/svg"
   xmlns="http://www.w3.org/2000/svg"
   xmlns:sodipodi="http://sodipodi.sourceforge.net/DTD/sodipodi-0.dtd"
   xmlns:inkscape="http://www.inkscape.org/namespaces/inkscape"
   inkscape:version="1.0 (4035a4fb49, 2020-05-01)"
   sodipodi:docname="construct-outline.svg"
   id="svg12"
   version="1.1"
   viewBox="0 0 512 512"
   height="512"
   width="512">
  <metadata
     id="metadata18">
    <rdf:RDF>
      <cc:Work
         rdf:about="">
        <dc:format>image/svg+xml</dc:format>
        <dc:type
           rdf:resource="http://purl.org/dc/dcmitype/StillImage" />
      </cc:Work>
    </rdf:RDF>
  </metadata>
  <defs
     id="defs16" />
  <sodipodi:namedview
     inkscape:current-layer="svg12"
     inkscape:window-maximized="1"
     inkscape:window-y="-8"
     inkscape:window-x="-8"
     inkscape:cy="232.98876"
     inkscape:cx="256"
     inkscape:zoom="1.7382812"
     showgrid="false"
     id="namedview14"
     inkscape:window-height="1057"
     inkscape:window-width="1848"
     inkscape:pageshadow="2"
     inkscape:pageopacity="0"
     guidetolerance="10"
     gridtolerance="10"
     objecttolerance="10"
     borderopacity="1"
     bordercolor="#666666"
     pagecolor="#ffffff" />
  <title
     id="title2">ionicons-v5-m</title>
  <path
     id="path4"
     style="fill:none;stroke:#000;stroke-linecap:round;stroke-miterlimit:10;stroke-width:32px"
     d="M436.67,184.11a27.17,27.17,0,0,1-38.3,0l-22.48-22.49a27.15,27.15,0,0,1,0-38.29l50.89-50.89a.85.85,0,0,0-.26-1.38C393.68,57,351.09,64.15,324.05,91c-25.88,25.69-27.35,64.27-17.87,98a27,27,0,0,1-7.67,27.14l-173,160.76a40.76,40.76,0,1,0,57.57,57.54l162.15-173.3A27,27,0,0,1,372,253.44c33.46,8.94,71.49,7.26,97.07-17.94,27.49-27.08,33.42-74.94,20.1-102.33a.85.85,0,0,0-1.36-.22Z" />
  <path
     id="path6"
     style="fill:none;stroke:#000;stroke-linecap:round;stroke-linejoin:round;stroke-width:32px"
     d="M224,284c-17.48-17-25.49-24.91-31-30.29a18.24,18.24,0,0,1-3.33-21.35,20.76,20.76,0,0,1,3.5-4.62l15.68-15.29a18.66,18.66,0,0,1,5.63-3.87,18.11,18.11,0,0,1,20,3.62c5.45,5.29,15.43,15,33.41,32.52" />
  <path
     id="path8"
     style="fill:none;stroke:#000;stroke-linecap:round;stroke-linejoin:round;stroke-width:32px"
     d="M317.07,291.3c40.95,38.1,90.62,83.27,110,99.41a13.46,13.46,0,0,1,.94,19.92L394.63,444a14,14,0,0,1-20.29-.76c-16.53-19.18-61.09-67.11-99.27-107" />
  <path
     id="path10"
     style="fill:none;stroke:#000;stroke-linecap:round;stroke-linejoin:round;stroke-width:32px"
     d="M17.34,193.5l29.41-28.74a4.71,4.71,0,0,1,3.41-1.35,4.85,4.85,0,0,1,3.41,1.35h0a9.86,9.86,0,0,0,8.19,2.77c3.83-.42,7.92-1.6,10.57-4.12,6-5.8-.94-17.23,4.34-24.54a207,207,0,0,1,19.78-22.6c6-5.88,29.84-28.32,69.9-44.45A107.31,107.31,0,0,1,206.67,64c22.59,0,40,10,46.26,15.67a89.54,89.54,0,0,1,10.28,11.64A78.92,78.92,0,0,0,254,88.54,68.82,68.82,0,0,0,234,87.28c-13.33,1.09-29.41,7.26-38,14-13.9,11-19.87,25.72-20.81,44.71-.68,14.12,2.72,22.1,36.1,55.49a6.6,6.6,0,0,1-.34,9.16l-18.22,18a6.88,6.88,0,0,1-9.54.09c-21.94-21.94-36.65-33.09-45-38.16s-15.07-6.5-18.3-6.85a30.85,30.85,0,0,0-18.27,3.87,11.39,11.39,0,0,0-2.64,2,14.14,14.14,0,0,0,.42,20.08l1.71,1.6a4.63,4.63,0,0,1,0,6.64L71.73,246.6A4.71,4.71,0,0,1,68.32,248a4.86,4.86,0,0,1-3.41-1.35L17.34,200.22A4.88,4.88,0,0,1,17.34,193.5Z" />
  <path
     id="path843"
     d="m 142.74184,462.78249 c -18.3296,-3.64203 -32.65023,-14.57313 -40.65726,-31.03418 -4.43697,-9.12163 -5.445592,-13.74625 -5.395117,-24.73707 0.03486,-7.59424 0.262638,-10.00963 1.301958,-13.80675 1.754716,-6.41078 6.854149,-16.5062 10.642389,-21.06887 1.74004,-2.09574 23.35881,-22.54698 48.04172,-45.44719 24.68291,-22.90021 44.89395,-41.89562 44.91342,-42.21203 0.0195,-0.3164 -4.73317,-5.17312 -10.56143,-10.79271 -6.64753,-6.40952 -11.56283,-11.6705 -13.18881,-14.11632 -3.01373,-4.53329 -5.27733,-10.86274 -5.84635,-16.34749 l -0.40079,-3.86327 -7.2702,-7.06707 c -13.6938,-13.3112 -28.61744,-25.41483 -36.33934,-29.47257 -4.92224,-2.58657 -9.70496,-3.83441 -12.97736,-3.38588 -1.39549,0.19127 -2.53725,0.44826 -2.53725,0.57108 0,0.12283 0.90252,1.53536 2.0056,3.13896 2.51976,3.66307 3.42333,6.68226 3.42333,11.43865 0,4.59004 -0.85469,7.60572 -3.12849,11.03853 -0.95771,1.44588 -9.15045,9.80958 -18.206087,18.586 -18.358329,17.79229 -19.69905,18.7508 -26.819912,19.17399 -4.871616,0.28952 -8.350449,-0.56748 -12.136879,-2.98988 C 55.980669,259.34925 43.337084,247.44213 29.508126,233.92815 7.2343575,212.16171 4.1611238,208.94403 2.5821015,205.73658 c -2.91290438,-5.91695 -2.87571495,-12.42508 0.104888,-18.35536 1.2252982,-2.43788 6.8637619,-8.29046 23.9395165,-24.84861 9.178611,-8.90039 12.364277,-11.6337 14.925838,-12.80642 4.244648,-1.94326 10.412273,-2.41269 14.299097,-1.08831 1.50949,0.51434 2.827855,0.93515 2.929691,0.93515 0.101836,0 0.18516,-1.62831 0.18516,-3.61846 0,-7.93715 2.445801,-13.30462 10.540613,-23.1321 C 89.97009,97.97922 112.75996,80.184624 143.45716,65.081235 160.6056,56.643999 172.6802,52.402353 186.39101,49.999142 c 10.09324,-1.769126 27.60597,-1.923508 36.2427,-0.319495 11.92592,2.214881 24.59107,7.169493 33.99336,13.298221 7.4422,4.851066 18.24642,16.321572 20.91588,22.205728 1.30917,2.885746 1.51035,8.318428 0.41778,11.281839 -2.05496,5.573705 -7.41823,9.760915 -13.27697,10.365595 -2.48779,0.25676 -4.29213,-0.0573 -9.33548,-1.62492 -6.00315,-1.86595 -6.61753,-1.94319 -15.45615,-1.94319 -7.8356,0 -9.92983,0.19814 -14.08169,1.33233 -15.42321,4.21321 -24.97785,10.91671 -29.90395,20.98046 -2.82998,5.78152 -3.86407,9.7214 -4.72948,18.01932 -0.53612,5.14052 -0.5177,6.92196 0.0942,9.1074 1.59322,5.69043 8.05689,13.96187 22.72934,29.08633 l 9.20845,9.49214 3.16404,0.41838 c 4.29888,0.56843 9.39147,2.478 13.40714,5.02729 1.83686,1.1661 8.89243,7.49341 15.67906,14.06071 6.78663,6.5673 12.5763,11.85465 12.86593,11.74967 0.28963,-0.10499 5.11411,-4.45077 10.72105,-9.65731 13.35061,-12.39719 13.68569,-13.13528 10.93345,-24.08325 -8.11775,-32.29118 -5.93611,-61.86923 6.3325,-85.8542 22.23355,-43.466271 79.80484,-65.558655 128.33519,-49.247289 8.00933,2.691988 10.86983,4.239993 13.74579,7.438747 4.5878,5.102742 5.49193,11.953302 2.37607,18.003471 -1.07386,2.085143 -8.52019,9.876917 -28.0042,29.303331 -15.09639,15.05176 -27.03853,27.41803 -27.69429,28.67785 -1.41354,2.71567 -1.5264,7.58125 -0.23878,10.29471 1.18334,2.49369 25.98855,27.20888 28.11338,28.01134 2.40781,0.90932 7.67033,0.74167 9.77089,-0.31129 1.0126,-0.50759 14.13772,-13.18238 29.16694,-28.16621 30.06919,-29.97838 29.82826,-29.78219 36.59167,-29.79738 7.02352,-0.0158 12.95197,4.54092 16.26644,12.50264 4.85527,11.66288 6.64211,21.68266 6.63026,37.17935 -0.01,13.08467 -1.06009,21.00875 -4.32472,32.63515 -8.14298,28.99972 -27.03959,52.65325 -51.33759,64.261 -15.86158,7.57746 -30.94497,10.47627 -51.75199,9.94596 -12.85023,-0.32752 -20.26781,-1.28755 -32.23561,-4.17214 -6.9044,-1.66416 -9.2773,-1.57269 -12.52682,0.4829 -2.17145,1.37363 -19.49142,19.50433 -19.49142,20.4038 0,1.1923 70.98425,65.75107 92.68832,84.29818 10.8092,9.23695 13.44405,13.26655 14.92784,22.82986 0.80082,5.16135 -0.10902,10.63247 -2.67919,16.1108 -1.91494,4.08168 -3.11724,5.40763 -22.2716,24.56199 -19.11178,19.11178 -20.48938,20.36158 -24.562,22.28339 -9.14871,4.31717 -17.55031,4.25144 -26.38117,-0.20636 -4.66834,-2.35658 -5.86633,-3.46741 -16.09097,-14.92042 -16.08498,-18.01739 -59.18522,-64.45337 -75.4909,-81.33351 l -4.85943,-5.03064 -42.17353,45.13629 c -26.82734,28.71198 -43.5741,46.18884 -46.02247,48.02889 -12.538,9.42272 -29.51744,13.52275 -44.04643,10.63589 z m 21.08046,-33.21363 c 5.0297,-2.48581 -6.45441,9.50046 103.73833,-108.27448 36.70831,-39.23416 68.25134,-72.67907 70.09562,-74.32202 4.13314,-3.68197 11.20915,-7.29953 17.24027,-8.81398 7.04034,-1.76788 13.52614,-1.54538 24.08066,0.8261 12.19573,2.74024 18.21801,3.44735 29.18462,3.42678 13.36699,-0.0251 23.14919,-1.91285 32.72397,-6.3151 22.79345,-10.47984 37.75234,-35.39596 38.99409,-64.95009 l 0.3384,-8.05394 -17.47542,17.32405 c -11.88463,11.78168 -18.76375,18.15596 -21.50239,19.92439 -15.62182,10.08752 -33.8673,9.70795 -48.89888,-1.01728 -5.14755,-3.67285 -31.23517,-30.36244 -33.57029,-34.34493 -4.74032,-8.0845 -6.67965,-15.66841 -6.21957,-24.32218 0.46653,-8.7753 2.43532,-14.89029 7.08291,-21.99927 1.19129,-1.8222 10.0568,-11.27354 19.70113,-21.002977 L 396.8709,79.964045 h -6.90936 c -12.2435,0 -23.18762,2.544746 -34.43794,8.007571 -21.03095,10.212003 -32.72422,24.937344 -37.49652,47.219394 -0.8345,3.89632 -1.04252,7.40304 -1.02378,17.25843 0.0255,13.42375 0.49216,17.10482 3.86506,30.48989 3.7603,14.92245 1.79792,27.09255 -6.16879,38.25688 -2.21422,3.10296 -21.88381,22.06629 -38.61068,37.22432 -13.73026,12.44248 -141.76068,131.73582 -143.14575,133.37717 -2.31403,2.74218 -4.23003,7.29796 -4.941,11.74845 -1.87889,11.7614 5.06239,23.29372 16.43863,27.31134 2.76951,0.97808 4.49184,1.17175 9.21162,1.03577 5.38141,-0.15503 6.12384,-0.32472 10.16991,-2.3244 z m 247.69723,-31.47448 c -22.93265,-20.12569 -55.03494,-49.10808 -84.06544,-75.89542 -4.99688,-4.61078 -9.31633,-8.38323 -9.59879,-8.38323 -0.28246,0 -5.19233,5.00405 -10.91081,11.12012 l -10.39725,11.12012 4.7511,5.04277 c 39.35395,41.76984 66.97403,71.55997 78.20374,84.34801 l 5.31462,6.05213 15.15408,-15.12022 15.15409,-15.12023 z M 234.89063,253.95633 c 5.28206,-4.92088 9.67863,-9.15811 9.77015,-9.41606 0.25536,-0.71974 -21.78282,-21.90656 -22.78684,-21.90656 -1.21528,0 -18.51214,17.26264 -18.51214,18.47551 0,0.7943 20.9019,21.79415 21.69251,21.79415 0.12792,0 4.55426,-4.02617 9.83632,-8.94704 z m -159.068395,-33.18382 7.178948,-6.7511 -1.341526,-3.32128 c -2.003249,-4.95955 -2.73599,-10.50505 -2.008013,-15.19697 1.9195,-12.37147 9.382366,-20.64128 22.772336,-25.23464 5.51938,-1.8934 6.04431,-1.96543 14.35804,-1.97025 8.49095,-0.005 8.73061,0.0299 14.95731,2.17024 14.04393,4.82755 26.98443,13.89986 49.4754,34.68613 l 6.32934,5.8496 2.73601,-2.38302 c 1.50482,-1.31066 2.73392,-2.59728 2.73134,-2.85914 -0.002,-0.26188 -2.96639,-3.62727 -6.58624,-7.47865 -15.55162,-16.54631 -22.43726,-26.75587 -25.67404,-38.0677 -1.36235,-4.76115 -1.05892,-22.1165 0.51485,-29.44771 1.37625,-6.41107 4.02197,-14.37611 6.26994,-18.87589 6.09679,-12.203947 17.61774,-23.674018 30.07306,-29.940252 1.74022,-0.875502 2.84299,-1.701652 2.45058,-1.835889 -1.25442,-0.429121 -13.22309,1.565532 -18.42311,3.070326 -19.39903,5.61374 -46.43581,20.589815 -65.14208,36.083155 -6.50321,5.38626 -16.520437,15.57402 -21.909761,22.28277 l -4.36369,5.43203 0.254114,6.07518 c 0.385547,9.2173 -1.466944,15.04631 -6.580656,20.70658 -6.075553,6.72491 -19.016531,10.87304 -28.070806,8.99787 l -4.005633,-0.82958 -7.643805,7.23535 c -4.204093,3.97944 -7.652555,7.3768 -7.663249,7.54969 -0.03131,0.50624 31.334099,31.05132 31.752323,30.92187 0.20904,-0.0647 3.610595,-3.15562 7.559018,-6.86872 z"
     style="fill:#ffffff;stroke-width:2.3;stroke-miterlimit:4;stroke-dasharray:none" />
</svg>
