<?xml version="1.0" encoding="UTF-8" standalone="no"?>
<svg
   xmlns:dc="http://purl.org/dc/elements/1.1/"
   xmlns:cc="http://creativecommons.org/ns#"
   xmlns:rdf="http://www.w3.org/1999/02/22-rdf-syntax-ns#"
   xmlns:svg="http://www.w3.org/2000/svg"
   xmlns="http://www.w3.org/2000/svg"
   xmlns:sodipodi="http://sodipodi.sourceforge.net/DTD/sodipodi-0.dtd"
   xmlns:inkscape="http://www.inkscape.org/namespaces/inkscape"
   inkscape:version="1.0 (4035a4fb49, 2020-05-01)"
   sodipodi:docname="create-outline.svg"
   id="svg10"
   version="1.1"
   viewBox="0 0 512 512"
   height="512"
   width="512">
  <metadata
     id="metadata16">
    <rdf:RDF>
      <cc:Work
         rdf:about="">
        <dc:format>image/svg+xml</dc:format>
        <dc:type
           rdf:resource="http://purl.org/dc/dcmitype/StillImage" />
      </cc:Work>
    </rdf:RDF>
  </metadata>
  <defs
     id="defs14" />
  <sodipodi:namedview
     inkscape:current-layer="svg10"
     inkscape:window-maximized="1"
     inkscape:window-y="-8"
     inkscape:window-x="-8"
     inkscape:cy="256"
     inkscape:cx="256"
     inkscape:zoom="1.7382812"
     showgrid="false"
     id="namedview12"
     inkscape:window-height="1057"
     inkscape:window-width="1848"
     inkscape:pageshadow="2"
     inkscape:pageopacity="0"
     guidetolerance="10"
     gridtolerance="10"
     objecttolerance="10"
     borderopacity="1"
     bordercolor="#666666"
     pagecolor="#ffffff" />
  <title
     id="title2">ionicons-v5-n</title>
  <path
     id="path4"
     style="fill:none;stroke:#000;stroke-linecap:round;stroke-linejoin:round;stroke-width:32.16032028;stroke-miterlimit:4;stroke-dasharray:none"
     d="M384,224V408a40,40,0,0,1-40,40H104a40,40,0,0,1-40-40V168a40,40,0,0,1,40-40H271.48" />
  <path
     style="stroke-width:1.00501001;stroke-miterlimit:4;stroke-dasharray:none"
     id="path6"
     d="M459.94,53.25a16.06,16.06,0,0,0-23.22-.56L424.35,65a8,8,0,0,0,0,11.31l11.34,11.32a8,8,0,0,0,11.34,0l12.06-12C465.19,69.54,465.76,59.62,459.94,53.25Z" />
  <path
     style="stroke-width:1.00501001;stroke-miterlimit:4;stroke-dasharray:none"
     id="path8"
     d="M399.34,90,218.82,270.2a9,9,0,0,0-2.31,3.93L208.16,299a3.91,3.91,0,0,0,4.86,4.86l24.85-8.35a9,9,0,0,0,3.93-2.31L422,112.66A9,9,0,0,0,422,100L412.05,90A9,9,0,0,0,399.34,90Z" />
  <path
     id="path841"
     d="M 94.346067,462.82888 C 69.582785,458.25566 51.277379,438.3247 48.628665,413.05169 c -0.779616,-7.4388 -0.779616,-242.8084 0,-250.2472 0.759766,-7.24939 2.386292,-12.98253 5.467553,-19.27191 6.064604,-12.37887 17.027923,-22.4298 29.880721,-27.39396 10.029391,-3.87368 3.069181,-3.60959 100.348461,-3.80757 96.96393,-0.19734 91.52598,-0.381 96.55374,3.26109 2.90331,2.10315 5.14545,5.80151 6.00089,9.89836 1.31058,6.27662 -2.23818,13.1445 -8.42782,16.31027 l -3.38602,1.73181 -88.63422,0.28764 -88.634217,0.28765 -3.867803,1.83225 c -4.619275,2.18825 -8.88912,6.0202 -10.971602,9.8464 -3.489007,6.41046 -3.281944,-1.91429 -3.281944,131.94648 0,88.42488 0.17949,123.23159 0.646834,125.43419 1.486741,7.00705 6.615758,13.54875 13.117533,16.73049 l 3.781701,1.85063 H 223.81409 350.4057 l 4.34724,-2.14851 c 4.63563,-2.29104 7.8655,-5.29899 10.47954,-9.75953 3.32294,-5.67016 3.21356,-2.11956 3.23057,-104.87398 l 0.0156,-94.34607 1.36114,-2.92314 c 1.79977,-3.86515 4.97021,-6.85179 8.79093,-8.28131 3.93405,-1.47191 6.8045,-1.47191 10.73854,0 3.85391,1.44194 7.02346,4.44952 8.81645,8.36592 l 1.36927,2.99087 -0.15502,98.58451 -0.15501,98.5845 -1.62039,5.17753 c -6.44385,20.58955 -22.36225,35.24546 -42.7666,39.37479 -5.79444,1.17265 -6.88858,1.18208 -131.16405,1.1306 -99.82867,-0.0414 -126.140013,-0.2032 -129.347833,-0.79561 z"
     style="fill:#ffffff;stroke-width:1.32977915;stroke-miterlimit:4;stroke-dasharray:none" />
  <path
     id="path843"
     d="m 209.81789,302.85277 c -0.78299,-0.54842 -1.27856,-1.49599 -1.27856,-2.44468 0,-0.85203 1.9664,-7.50342 4.36978,-14.78086 l 4.36979,-13.23172 91.84594,-91.84629 c 100.24164,-100.242022 93.4593,-93.891932 98.76746,-92.472853 3.40259,0.909648 15.53,13.151193 16.11434,16.266003 1.00756,5.37078 6.85904,-0.85411 -92.83285,98.75693 l -91.85694,91.78246 -13.53231,4.43327 c -7.44277,2.43831 -13.79236,4.43328 -14.1102,4.43328 -0.31783,0 -1.15324,-0.40299 -1.85645,-0.89554 z"
     style="fill:#ffffff;stroke-width:1.32977915;stroke-miterlimit:4;stroke-dasharray:none" />
  <path
     id="path845"
     d="m 438.65169,89.106737 c -1.75704,-0.689222 -14.14139,-12.85128 -15.28511,-15.010753 -0.45252,-0.8544 -0.82276,-2.647109 -0.82276,-3.983799 0,-2.360231 0.24423,-2.676535 8.46553,-10.963948 7.09674,-7.153815 8.96056,-8.718822 11.52719,-9.679123 13.12826,-4.911909 25.33856,8.223531 19.49975,20.977179 -1.03918,2.269866 -3.30481,5.105511 -7.68312,9.616143 -8.71937,8.982884 -11.61135,10.648709 -15.70148,9.044301 z"
     style="fill:#ffffff;stroke-width:1.32977915;stroke-miterlimit:4;stroke-dasharray:none" />
</svg>
