<?xml version="1.0" encoding="UTF-8" standalone="no"?>
<svg
   xmlns:dc="http://purl.org/dc/elements/1.1/"
   xmlns:cc="http://creativecommons.org/ns#"
   xmlns:rdf="http://www.w3.org/1999/02/22-rdf-syntax-ns#"
   xmlns:svg="http://www.w3.org/2000/svg"
   xmlns="http://www.w3.org/2000/svg"
   xmlns:sodipodi="http://sodipodi.sourceforge.net/DTD/sodipodi-0.dtd"
   xmlns:inkscape="http://www.inkscape.org/namespaces/inkscape"
   inkscape:version="1.0 (4035a4fb49, 2020-05-01)"
   sodipodi:docname="person-outline.svg"
   id="svg8"
   version="1.1"
   viewBox="0 0 512 512"
   height="512"
   width="512">
  <metadata
     id="metadata14">
    <rdf:RDF>
      <cc:Work
         rdf:about="">
        <dc:format>image/svg+xml</dc:format>
        <dc:type
           rdf:resource="http://purl.org/dc/dcmitype/StillImage" />
      </cc:Work>
    </rdf:RDF>
  </metadata>
  <defs
     id="defs12" />
  <sodipodi:namedview
     inkscape:current-layer="svg8"
     inkscape:window-maximized="1"
     inkscape:window-y="-8"
     inkscape:window-x="-8"
     inkscape:cy="256"
     inkscape:cx="256"
     inkscape:zoom="1.7382812"
     showgrid="false"
     id="namedview10"
     inkscape:window-height="1057"
     inkscape:window-width="1848"
     inkscape:pageshadow="2"
     inkscape:pageopacity="0"
     guidetolerance="10"
     gridtolerance="10"
     objecttolerance="10"
     borderopacity="1"
     bordercolor="#000000"
     pagecolor="#ffffff" />
  <title
     id="title2">ionicons-v5-j</title>
  <path
     id="path4"
     style="fill:none;stroke:#000;stroke-linecap:round;stroke-linejoin:round;stroke-width:32px"
     d="M344,144c-3.92,52.87-44,96-88,96s-84.15-43.12-88-96c-4-55,35-96,88-96S348,90,344,144Z" />
  <path
     id="path6"
     style="fill:none;stroke:#000;stroke-miterlimit:10;stroke-width:32px"
     d="M256,304c-87,0-175.3,48-191.64,138.6C62.39,453.52,68.57,464,80,464H432c11.44,0,17.62-10.48,15.65-21.4C431.3,352,343,304,256,304Z" />
  <path
     id="path839"
     d="m 249.95955,255.32617 c -17.7113,-1.13233 -35.4182,-8.32412 -51.48764,-20.91209 -5.281,-4.13686 -14.37786,-13.21322 -18.72594,-18.68374 -9.64776,-12.13828 -18.04307,-28.41206 -22.38893,-43.3995 -15.7245,-54.22867 4.73994,-106.072191 50.97918,-129.147933 24.4533,-12.203447 56.17862,-14.203256 82.53152,-5.202383 35.15238,12.006352 60.21634,41.311083 67.39789,78.801496 1.67711,8.75512 1.80172,29.7694 0.23026,38.83146 -3.74375,21.58906 -12.26117,41.62937 -24.62636,57.94248 -10.32491,13.62141 -24.28719,25.33542 -38.9435,32.67262 -14.14731,7.08239 -29.11644,10.11093 -44.96648,9.09759 z m 19.62794,-32.90804 c 23.40514,-5.94575 44.50784,-27.60495 53.7024,-55.11857 6.66385,-19.94078 6.90657,-40.99097 0.66389,-57.57625 -8.66664,-23.025152 -26.6349,-38.607479 -50.98299,-44.213174 -6.46747,-1.489014 -19.91656,-2.040727 -27.24882,-1.117811 -32.06267,4.035748 -55.06193,25.807584 -61.11651,57.854865 -1.41042,7.46544 -1.28312,21.50485 0.27478,30.30448 6.54005,36.94067 32.84314,66.35 63.68986,71.21122 5.36372,0.84529 14.76402,0.24382 21.01739,-1.34476 z"
     style="fill:#ffffff;stroke-width:0.0995236" />
  <path
     id="path841"
     d="M 72.307401,478.61934 C 61.535856,475.7975 53.454921,468.00298 50.003316,457.10578 47.979905,450.71759 47.994713,444.01955 50.053603,434.35953 63.388952,371.79193 110.88726,322.5264 179.2,300.40812 c 67.43688,-21.8347 144.10629,-13.48361 201.49612,21.94763 30.24515,18.67271 52.91051,43.05816 67.45534,72.57459 9.11121,18.48974 15.33638,39.64088 15.32309,52.06292 -0.0165,15.40413 -9.51623,27.94637 -23.96637,31.64209 -4.44423,1.13664 -6.4076,1.14858 -183.74402,1.11724 C 81.071076,479.72173 76.405419,479.6929 72.307401,478.61934 Z M 432.3236,446.91871 c 0,-2.37701 -3.0106,-14.67943 -5.26102,-21.49849 -4.30061,-13.03136 -14.21025,-31.24431 -22.53214,-41.41186 -14.45542,-17.66137 -32.23698,-31.71992 -53.78561,-42.52424 -20.72504,-10.39138 -42.43581,-16.79021 -68.85719,-20.29432 -10.8793,-1.44286 -40.58275,-1.44049 -51.77528,0.004 -33.66995,4.34579 -62.66246,14.6476 -87.15506,30.9685 -4.58786,3.05717 -10.54202,7.32348 -13.23146,9.48069 -6.00529,4.81685 -16.34216,15.08705 -21.16183,21.02532 -13.045841,16.07368 -22.962835,36.46791 -27.39622,56.34015 -0.820262,3.67674 -1.491386,7.23629 -1.491386,7.91011 v 1.22511 H 256 432.3236 Z"
     style="fill:#ffffff;stroke-width:0.0995236" />
</svg>
